<mxfile host="65bd71144e">
    <diagram id="wklDU4xiw3lq9PIBjMEm" name="Page-1">
        <mxGraphModel dx="454" dy="541" grid="1" gridSize="10" guides="1" tooltips="1" connect="1" arrows="1" fold="1" page="1" pageScale="1" pageWidth="850" pageHeight="1100" background="#ffffff" math="0" shadow="0">
            <root>
                <mxCell id="0"/>
                <mxCell id="1" parent="0"/>
                <mxCell id="3" value="Waiting for Player 0" style="html=1;align=center;verticalAlign=top;rounded=1;absoluteArcSize=1;arcSize=10;dashed=0;fillColor=#0050ef;strokeColor=#001DBC;fontColor=#ffffff;" parent="1" vertex="1">
                    <mxGeometry x="160" y="280" width="140" height="40" as="geometry"/>
                </mxCell>
                <mxCell id="5" value="Game Starts" style="edgeStyle=elbowEdgeStyle;html=1;fillColor=#0050ef;strokeColor=#001DBC;labelBackgroundColor=none;fontColor=#000099;" parent="1" source="4" target="8" edge="1">
                    <mxGeometry relative="1" as="geometry"/>
                </mxCell>
                <mxCell id="4" value="" style="strokeWidth=2;html=1;shape=mxgraph.flowchart.start_1;whiteSpace=wrap;fillColor=#0050ef;strokeColor=#001DBC;fontColor=#ffffff;" parent="1" vertex="1">
                    <mxGeometry x="300" y="40" width="40" height="40" as="geometry"/>
                </mxCell>
                <mxCell id="6" value="Waiting for Player 1" style="html=1;align=center;verticalAlign=top;rounded=1;absoluteArcSize=1;arcSize=10;dashed=0;fillColor=#0050ef;strokeColor=#001DBC;fontColor=#ffffff;" parent="1" vertex="1">
                    <mxGeometry x="340" y="280" width="140" height="40" as="geometry"/>
                </mxCell>
                <mxCell id="7" value="Chip in the air" style="html=1;align=center;verticalAlign=top;rounded=1;absoluteArcSize=1;arcSize=10;dashed=0;fillColor=#0050ef;strokeColor=#001DBC;fontColor=#ffffff;" parent="1" vertex="1">
                    <mxGeometry x="250" y="380" width="140" height="40" as="geometry"/>
                </mxCell>
                <mxCell id="9" value="YES" style="edgeStyle=elbowEdgeStyle;html=1;labelBackgroundColor=none;strokeColor=#000099;fontColor=#000099;" parent="1" source="8" target="3" edge="1">
                    <mxGeometry relative="1" as="geometry">
                        <mxPoint x="220" y="170" as="targetPoint"/>
                    </mxGeometry>
                </mxCell>
                <mxCell id="10" value="NO" style="edgeStyle=elbowEdgeStyle;html=1;labelBackgroundColor=none;strokeColor=#000099;fontColor=#000099;" parent="1" source="8" target="6" edge="1">
                    <mxGeometry relative="1" as="geometry"/>
                </mxCell>
                <mxCell id="8" value="Player 0's&lt;br&gt;turn?" style="rhombus;whiteSpace=wrap;html=1;strokeColor=#001DBC;fontColor=#ffffff;fillColor=#0050ef;" parent="1" vertex="1">
                    <mxGeometry x="280" y="130" width="80" height="80" as="geometry"/>
                </mxCell>
                <mxCell id="11" value="Drag Starts" style="edgeStyle=elbowEdgeStyle;html=1;fillColor=#0050ef;strokeColor=#001DBC;labelBackgroundColor=none;fontColor=#000099;" parent="1" source="3" target="7" edge="1">
                    <mxGeometry relative="1" as="geometry">
                        <mxPoint x="330" y="90" as="sourcePoint"/>
                        <mxPoint x="330" y="140" as="targetPoint"/>
                    </mxGeometry>
                </mxCell>
                <mxCell id="12" value="Drag Starts" style="edgeStyle=elbowEdgeStyle;html=1;fillColor=#0050ef;strokeColor=#001DBC;labelBackgroundColor=none;fontColor=#000099;" parent="1" source="6" target="7" edge="1">
                    <mxGeometry relative="1" as="geometry">
                        <mxPoint x="190.909090909091" y="200" as="sourcePoint"/>
                        <mxPoint x="299.090909090909" y="270" as="targetPoint"/>
                    </mxGeometry>
                </mxCell>
                <mxCell id="15" value="Game Over" style="html=1;align=center;verticalAlign=top;rounded=1;absoluteArcSize=1;arcSize=10;dashed=0;fillColor=#0050ef;strokeColor=#001DBC;fontColor=#ffffff;" parent="1" vertex="1">
                    <mxGeometry x="710" y="500" width="140" height="40" as="geometry"/>
                </mxCell>
                <mxCell id="16" value="Drop Starts" style="edgeStyle=elbowEdgeStyle;html=1;fillColor=#0050ef;strokeColor=#001DBC;labelBackgroundColor=none;fontColor=#000099;" parent="1" source="7" target="17" edge="1">
                    <mxGeometry relative="1" as="geometry">
                        <mxPoint x="285" y="330" as="sourcePoint"/>
                        <mxPoint x="285" y="390" as="targetPoint"/>
                    </mxGeometry>
                </mxCell>
                <mxCell id="17" value="Move is &lt;br&gt;valid?" style="rhombus;whiteSpace=wrap;html=1;strokeColor=#001DBC;fontColor=#ffffff;fillColor=#0050ef;" parent="1" vertex="1">
                    <mxGeometry x="280" y="480" width="80" height="80" as="geometry"/>
                </mxCell>
                <mxCell id="19" value="NO" style="edgeStyle=elbowEdgeStyle;html=1;labelBackgroundColor=none;strokeColor=#000099;fontColor=#000099;" parent="1" source="17" target="28" edge="1">
                    <mxGeometry relative="1" as="geometry">
                        <mxPoint x="300" y="190" as="sourcePoint"/>
                        <mxPoint x="300" y="290" as="targetPoint"/>
                        <Array as="points">
                            <mxPoint x="130" y="470"/>
                            <mxPoint x="500" y="440"/>
                            <mxPoint x="560" y="390"/>
                        </Array>
                    </mxGeometry>
                </mxCell>
                <mxCell id="20" value="Game Ends" style="edgeStyle=elbowEdgeStyle;html=1;fillColor=#0050ef;strokeColor=#001DBC;labelBackgroundColor=none;fontColor=#000099;" parent="1" target="26" edge="1">
                    <mxGeometry relative="1" as="geometry">
                        <mxPoint x="780" y="500" as="sourcePoint"/>
                        <mxPoint x="330" y="490" as="targetPoint"/>
                        <Array as="points">
                            <mxPoint x="780" y="470"/>
                            <mxPoint x="800" y="540"/>
                        </Array>
                        <mxPoint as="offset"/>
                    </mxGeometry>
                </mxCell>
                <mxCell id="22" value="YES" style="edgeStyle=elbowEdgeStyle;html=1;labelBackgroundColor=none;strokeColor=#000099;fontColor=#000099;" parent="1" source="17" target="23" edge="1">
                    <mxGeometry relative="1" as="geometry">
                        <mxPoint x="150" y="560" as="sourcePoint"/>
                        <mxPoint x="150" y="660" as="targetPoint"/>
                    </mxGeometry>
                </mxCell>
                <mxCell id="23" value="Is there a winner?" style="rhombus;whiteSpace=wrap;html=1;strokeColor=#001DBC;fontColor=#ffffff;fillColor=#0050ef;" parent="1" vertex="1">
                    <mxGeometry x="530" y="480" width="80" height="80" as="geometry"/>
                </mxCell>
                <mxCell id="25" value="NO" style="edgeStyle=elbowEdgeStyle;html=1;labelBackgroundColor=none;strokeColor=#000099;fontColor=#000099;" parent="1" source="23" target="8" edge="1">
                    <mxGeometry relative="1" as="geometry">
                        <mxPoint x="370" y="630" as="sourcePoint"/>
                        <mxPoint x="370" y="180" as="targetPoint"/>
                        <Array as="points">
                            <mxPoint x="570" y="380"/>
                            <mxPoint x="530" y="690"/>
                            <mxPoint x="510" y="450"/>
                            <mxPoint x="570" y="400"/>
                        </Array>
                    </mxGeometry>
                </mxCell>
                <mxCell id="26" value="" style="ellipse;html=1;shape=endState;fillColor=#0050ef;strokeColor=#001DBC;fontColor=#ffffff;" parent="1" vertex="1">
                    <mxGeometry x="765" y="395" width="30" height="30" as="geometry"/>
                </mxCell>
                <mxCell id="27" value="YES" style="edgeStyle=elbowEdgeStyle;html=1;labelBackgroundColor=none;strokeColor=#000099;fontColor=#000099;" parent="1" source="23" target="15" edge="1">
                    <mxGeometry relative="1" as="geometry">
                        <mxPoint x="330" y="670" as="sourcePoint"/>
                        <mxPoint x="330" y="730" as="targetPoint"/>
                    </mxGeometry>
                </mxCell>
                <mxCell id="28" value="Communicating Error" style="html=1;align=center;verticalAlign=top;rounded=1;absoluteArcSize=1;arcSize=10;dashed=0;fillColor=#0050ef;strokeColor=#001DBC;fontColor=#ffffff;" parent="1" vertex="1">
                    <mxGeometry x="60" y="380" width="140" height="40" as="geometry"/>
                </mxCell>
                <mxCell id="29" value="Continue" style="edgeStyle=elbowEdgeStyle;html=1;labelBackgroundColor=none;strokeColor=#000099;fontColor=#000099;" parent="1" source="28" target="8" edge="1">
                    <mxGeometry relative="1" as="geometry">
                        <mxPoint x="290" y="530" as="sourcePoint"/>
                        <mxPoint x="140" y="430" as="targetPoint"/>
                        <Array as="points">
                            <mxPoint x="130" y="300"/>
                            <mxPoint x="120" y="320"/>
                            <mxPoint x="140" y="480"/>
                            <mxPoint x="510" y="450"/>
                            <mxPoint x="570" y="400"/>
                        </Array>
                    </mxGeometry>
                </mxCell>
            </root>
        </mxGraphModel>
    </diagram>
</mxfile>